<?xml version="1.0" standalone="no"?>
<!DOCTYPE svg PUBLIC "-//W3C//DTD SVG 20010904//EN"
 "http://www.w3.org/TR/2001/REC-SVG-20010904/DTD/svg10.dtd">
<svg version="1.0" xmlns="http://www.w3.org/2000/svg"
 width="87.000000pt" height="80.000000pt" viewBox="0 0 87.000000 80.000000"
 preserveAspectRatio="xMidYMid meet">
<metadata>
Created by potrace 1.16, written by Peter Selinger 2001-2019
</metadata>
<g transform="translate(0.000000,80.000000) scale(0.100000,-0.100000)"
fill="#000000" stroke="none">
<path d="M317 784 c-15 -8 -27 -17 -27 -20 0 -3 6 -2 13 2 8 5 8 2 -2 -9 -15
-18 -26 -23 -16 -7 10 16 -11 12 -25 -5 -6 -8 -9 -19 -6 -24 4 -5 1 -13 -5
-17 -8 -4 -9 -3 -5 4 4 7 5 12 2 12 -3 0 -10 -10 -17 -21 -7 -15 -8 -19 0 -15
7 5 9 1 5 -8 -3 -9 -9 -16 -13 -16 -3 0 -7 -27 -9 -61 -3 -48 -1 -59 10 -53
22 14 37 13 31 -3 -5 -12 -7 -12 -15 -1 -7 9 -8 4 -3 -15 3 -16 2 -26 -2 -24
-4 3 -8 -23 -9 -58 0 -58 1 -63 22 -63 19 0 21 4 16 44 -4 38 -2 44 14 44 16
0 17 2 4 11 -12 8 -11 9 5 5 66 -18 133 -1 166 41 13 17 13 17 -6 3 -15 -11
-14 -7 4 13 25 28 43 38 21 12 -24 -29 7 -14 36 17 16 18 20 26 9 18 -18 -14
-19 -14 -7 2 8 9 19 15 27 12 7 -3 16 0 21 7 5 8 3 10 -6 4 -8 -5 -11 -4 -6 3
4 6 14 8 23 5 12 -5 14 -3 8 7 -6 10 -4 12 7 7 9 -3 20 -1 26 5 6 6 19 7 29 3
45 -19 53 -13 44 37 -2 16 -75 90 -100 102 -37 19 -228 19 -264 0z"/>
<path d="M614 534 c2 -25 34 -66 47 -59 16 11 18 -13 2 -26 -14 -12 -16 -12
-9 0 16 25 -16 6 -33 -20 -15 -23 -15 -23 3 -9 18 14 18 14 6 -7 -8 -12 -17
-20 -21 -18 -3 3 -6 -8 -6 -23 0 -125 -7 -232 -15 -232 -6 0 -8 -7 -4 -15 3
-8 0 -14 -6 -12 -6 1 -13 -4 -16 -12 -3 -9 0 -11 9 -6 12 7 12 5 1 -6 -7 -8
-20 -14 -30 -14 -10 0 -17 -8 -17 -20 0 -18 7 -20 87 -21 56 0 85 3 81 9 -4 6
1 8 11 4 20 -8 59 10 51 22 -2 5 3 15 13 22 15 13 16 12 3 -3 -20 -26 2 -22
26 5 35 38 56 77 60 110 9 78 8 155 -1 150 -5 -4 -7 1 -3 11 4 9 3 15 -2 12
-5 -3 -12 1 -15 10 -4 9 -2 13 5 8 17 -10 -6 28 -29 49 -10 10 -28 19 -39 22
-17 3 -20 -1 -18 -26 1 -16 5 -32 9 -36 3 -3 5 -38 5 -77 l-2 -71 -9 75 c-5
41 -9 85 -9 97 -1 13 -5 20 -10 17 -5 -3 -6 1 -3 9 3 8 0 18 -7 23 -8 5 -10 3
-4 -6 5 -8 4 -11 -3 -6 -6 4 -9 12 -6 19 7 18 -53 72 -80 72 -17 1 -22 -4 -22
-21z"/>
<path d="M94 467 c-35 -30 -68 -77 -45 -63 8 5 8 0 0 -18 -7 -14 -16 -23 -21
-20 -5 3 -6 -6 -2 -20 3 -14 2 -26 -2 -26 -5 0 -9 -22 -9 -50 0 -27 4 -50 9
-50 4 0 6 -9 3 -20 -3 -11 -1 -20 5 -20 5 0 6 -5 3 -10 -18 -29 87 -136 120
-123 11 4 16 2 12 -3 -3 -6 22 -10 63 -10 38 -1 67 2 65 6 -6 10 22 33 32 27
5 -3 35 -7 68 -8 57 -3 59 -2 59 22 0 24 -26 33 -50 17 -5 -4 -19 -5 -31 -2
-18 5 -21 13 -19 54 3 61 -2 70 -98 170 -43 46 -75 77 -71 70 5 -9 4 -11 -4
-6 -7 5 -9 16 -5 28 4 14 2 18 -5 14 -7 -5 -11 2 -11 18 0 14 4 26 8 26 5 0 9
6 9 14 0 24 -48 15 -83 -17z"/>
</g>
</svg>
